<?xml version="1.0" standalone="no"?>
<!DOCTYPE svg PUBLIC "-//W3C//DTD SVG 20010904//EN"
 "http://www.w3.org/TR/2001/REC-SVG-20010904/DTD/svg10.dtd">
<svg version="1.0" xmlns="http://www.w3.org/2000/svg"
 width="1000.000000pt" height="1000.000000pt" viewBox="0 0 1000.000000 1000.000000"
 preserveAspectRatio="xMidYMid meet">
<metadata>
Created by potrace 1.10, written by Peter Selinger 2001-2011
</metadata>
<g transform="translate(0.000000,1000.000000) scale(0.100000,-0.100000)"
fill="#000000" stroke="none">
<path d="M2180 9128 c-6 -13 -14 -30 -20 -38 -35 -55 -130 -219 -130 -225 0
-4 -13 -27 -30 -52 -16 -24 -30 -46 -30 -49 0 -2 -27 -49 -60 -103 -33 -55
-60 -102 -60 -105 0 -3 -34 -62 -75 -131 -41 -69 -75 -127 -75 -130 0 -3 -20
-39 -45 -79 -72 -119 -74 -117 112 -114 l157 3 49 85 c27 47 63 110 80 140 17
30 52 92 79 137 26 45 48 84 48 87 0 3 15 29 33 58 19 29 50 82 69 118 20 36
50 89 67 118 17 29 31 55 31 57 0 2 -24 44 -52 94 -29 49 -61 103 -70 120 -21
39 -63 43 -78 9z"/>
<path d="M2416 8711 c-15 -22 -26 -43 -26 -47 0 -3 -20 -39 -45 -78 -25 -40
-45 -82 -45 -94 0 -21 29 -84 60 -132 40 -59 148 -247 154 -268 4 -12 12 -22
17 -22 5 0 9 -4 9 -9 0 -5 29 -59 65 -120 36 -60 65 -114 65 -120 0 -6 5 -11
10 -11 6 0 10 -6 10 -14 0 -8 6 -21 13 -28 6 -7 18 -25 26 -40 l14 -28 159 0
c142 0 158 2 158 17 0 16 -57 117 -230 413 -38 63 -83 142 -101 175 -18 33
-48 84 -66 112 -18 29 -37 63 -43 75 -21 54 -149 253 -163 256 -10 2 -26 -13
-41 -37z"/>
<path d="M1452 7867 c-41 -69 -62 -114 -62 -135 l0 -32 590 0 c394 0 590 3
590 10 0 9 -32 73 -65 128 -5 9 -25 43 -43 75 l-33 57 -458 0 -458 0 -61 -103z"/>
<path d="M1150 7338 c-19 -29 -37 -55 -40 -58 -14 -13 -70 -89 -70 -96 0 -5
-18 -29 -40 -54 -22 -25 -40 -48 -40 -51 0 -3 -45 -66 -100 -140 -54 -74 -109
-147 -120 -164 -11 -16 -57 -78 -100 -137 -44 -59 -80 -112 -80 -118 0 -7 529
-10 1660 -10 1169 0 1660 3 1660 11 0 6 -11 25 -24 42 -29 38 -83 114 -130
182 -19 28 -43 59 -53 70 -10 11 -31 40 -48 65 -16 24 -35 51 -42 60 -17 21
-120 166 -154 216 -16 23 -35 47 -44 54 -8 7 -15 17 -15 22 0 5 -4 14 -10 21
-28 34 -77 97 -90 116 l-14 21 -1037 0 -1036 0 -33 -52z"/>
</g>
</svg>
